# xmcd CD database file
#
# Track frame offsets:
#	150
#	11114
#	22958
#	35863
#	47894
#	54370
#	63575
#	77776
#	90657
#	102598
#	112326
#	118863
#	130259
#	139075
#	148369
#	159492
#	169742
#	182732
#	192704
#	204140
#	217070
#	228760
#
# Disc length: 3242 seconds
#
# Revision: 0
# Processed by: cddbd v1.5.2PL0 Copyright (c) Steve Scherf et al.
# Submitted via: CDex 1.70beta2
#
DISCID=4f0ca816
DTITLE=The Ivy League - This Is The Ivy League
DYEAR=1965
DGENRE=British Beat
TTITLE0=Almost Grown
TTITLE1=That's Why I'm Crying
TTITLE2=Floral Dance
TTITLE3=What More Do You Want
TTITLE4=Lulu's Back In Town
TTITLE5=We're Having A Party
TTITLE6=Don't Worry Baby
TTITLE7=Make Love
TTITLE8=Don't Think Twice It's Alright
TTITLE9=Funny How Love Can Be
TTITLE10=My Old Dutch
TTITLE11=Dance To The Locomotion
TTITLE12=Lonely Room [Bonus Track]
TTITLE13=A Girl Like You [Bonus Track]
TTITLE14=Tossing And Turning [Bonus Track]
TTITLE15=Graduation Day [Bonus Track]
TTITLE16=Our Love Is Slipping Away [Bonus Track]
TTITLE17=Running Round In Circles [Bonus Track]
TTITLE18=Willow Tree [Bonus Track]
TTITLE19=My World Fell Down [Bonus Track]
TTITLE20=Four And Twenty Hours [Bonus Track]
TTITLE21=Suddenly Things [Bonus Track]
EXTD=YEAR: 1965
EXTT0=
EXTT1=
EXTT2=
EXTT3=
EXTT4=
EXTT5=
EXTT6=
EXTT7=
EXTT8=
EXTT9=
EXTT10=
EXTT11=
EXTT12=
EXTT13=
EXTT14=
EXTT15=
EXTT16=
EXTT17=
EXTT18=
EXTT19=
EXTT20=
EXTT21=
PLAYORDER=
